<svg id="placeholder" xmlns="http://www.w3.org/2000/svg" width="78.464" height="111.593" viewBox="0 0 78.464 111.593">
  <path id="Path_1" data-name="Path 1" d="M115.232,0A39.263,39.263,0,0,0,76,39.232a38.687,38.687,0,0,0,5.885,20.6l30.688,50.22a3.1,3.1,0,0,0,2.224,1.5,3.255,3.255,0,0,0,3.335-1.569l30.775-50.678a38.693,38.693,0,0,0,5.558-20.074A39.263,39.263,0,0,0,115.232,0Zm0,58.848a19.616,19.616,0,1,1,19.616-19.616A19.59,19.59,0,0,1,115.232,58.848Z" transform="translate(-76)" fill="#798402"/>
</svg>
