<svg id="Order_Online_4_" xmlns="http://www.w3.org/2000/svg" width="71.925" height="111.593" viewBox="0 0 71.925 111.593">
  <g id="Group_35" data-name="Group 35">
    <g id="Group_34" data-name="Group 34">
      <path id="Path_37" data-name="Path 37" d="M153.117,0H100.808A9.819,9.819,0,0,0,91,9.808v91.977a9.819,9.819,0,0,0,9.808,9.808h52.309a9.819,9.819,0,0,0,9.808-9.808V9.808A9.819,9.819,0,0,0,153.117,0Z" transform="translate(-91)" fill="#798402"/>
    </g>
  </g>
  <g id="Group_37" data-name="Group 37" transform="translate(13.077 13.077)">
    <g id="Group_36" data-name="Group 36">
      <path id="Path_38" data-name="Path 38" d="M193.5,105.989h-3.269v-3.269A16.372,16.372,0,0,0,177.155,86.7V83.1a3.269,3.269,0,0,0-6.539,0v3.6a16.372,16.372,0,0,0-13.077,16.016v3.269h-3.269a3.269,3.269,0,1,0,0,6.539H193.5a3.269,3.269,0,0,0,0-6.539Zm-26.155-39.45h13.077a3.269,3.269,0,0,0,0-6.539H167.347a3.269,3.269,0,0,0,0,6.539ZM180.424,138.9H167.347a3.269,3.269,0,1,0,0,6.539h13.077a3.269,3.269,0,0,0,0-6.539Z" transform="translate(-151 -60)" fill="#fff"/>
    </g>
  </g>
</svg>
