<svg id="invoice" xmlns="http://www.w3.org/2000/svg" width="83.578" height="111.593" viewBox="0 0 83.578 111.593">
  <path id="Path_39" data-name="Path 39" d="M144.576,0H67.536a3.269,3.269,0,0,0-3.269,3.269V98.694a3.27,3.27,0,0,0,.958,2.312l9.63,9.63a3.269,3.269,0,0,0,4.623,0l7.318-7.318,7.318,7.318a3.269,3.269,0,0,0,4.623,0l7.318-7.318,7.318,7.318a3.269,3.269,0,0,0,4.624,0l7.318-7.318,7.318,7.318a3.269,3.269,0,0,0,4.623,0l9.63-9.63a3.269,3.269,0,0,0,.958-2.312V3.269A3.269,3.269,0,0,0,144.576,0Z" transform="translate(-64.267)" fill="#798402"/>
  <path id="Path_41" data-name="Path 41" d="M223.37,111.618A10.284,10.284,0,0,0,213.1,101.345h-4.669a3.734,3.734,0,0,1,0-7.469h9.338a3.269,3.269,0,1,0,0-6.539h-3.734V83.6a3.269,3.269,0,1,0-6.539,0v3.779a10.272,10.272,0,0,0,.935,20.5H213.1a3.734,3.734,0,1,1,0,7.468h-9.339a3.269,3.269,0,1,0,0,6.539h3.734v3.734a3.269,3.269,0,1,0,6.539,0v-3.779A10.286,10.286,0,0,0,223.37,111.618Z" transform="translate(-168.973 -62.825)" fill="#fff"/>
  <path id="Path_42" data-name="Path 42" d="M198.954,360.006H163.936a3.269,3.269,0,0,1,0-6.539h35.018a3.269,3.269,0,0,1,0,6.539Z" transform="translate(-139.656 -276.427)" fill="#fff"/>
</svg>
