<svg xmlns="http://www.w3.org/2000/svg" width="112" height="112" viewBox="0 0 112 112">
  <g id="egg" transform="translate(0 -0.284)">
    <circle id="Ellipse_1" data-name="Ellipse 1" cx="56" cy="56" r="56" transform="translate(0 0.284)" fill="#798402"/>
    <circle id="Ellipse_2" data-name="Ellipse 2" cx="42.381" cy="42.381" r="42.381" transform="translate(13.134 14.03)" fill="#fff"/>
    <path id="Path_67" data-name="Path 67" d="M204.965,158.872a12.79,12.79,0,0,1-3.179-4.187,10.878,10.878,0,0,0-19.766,0,12.79,12.79,0,0,1-3.179,4.187,19.676,19.676,0,0,0,0,29.458,12.79,12.79,0,0,1,3.179,4.187,10.878,10.878,0,0,0,19.766,0,12.79,12.79,0,0,1,3.179-4.187,19.676,19.676,0,0,0,0-29.458Z" transform="translate(-136.388 -116.317)" fill="#798402"/>
    <circle id="Ellipse_3" data-name="Ellipse 3" cx="10" cy="10" r="10" transform="translate(46 47.284)" fill="#fff"/>
  </g>
</svg>
