<svg id="placeholder" xmlns="http://www.w3.org/2000/svg" width="58.265" height="82.865" viewBox="0 0 58.265 82.865">
  <path id="Path_1" data-name="Path 1" d="M105.132,0A29.155,29.155,0,0,0,76,29.132a28.728,28.728,0,0,0,4.37,15.295l22.787,37.292a2.3,2.3,0,0,0,1.651,1.117,2.417,2.417,0,0,0,2.476-1.165l22.853-37.632a28.732,28.732,0,0,0,4.127-14.906A29.155,29.155,0,0,0,105.132,0Zm0,43.7A14.566,14.566,0,1,1,119.7,29.132,14.547,14.547,0,0,1,105.132,43.7Z" transform="translate(-76)" fill="#798402"/>
</svg>
