<svg xmlns="http://www.w3.org/2000/svg" width="119.415" height="121.737" viewBox="0 0 119.415 121.737">
  <g id="tag" transform="translate(-1.161 60.868) rotate(-45)">
    <path id="Path_70" data-name="Path 70" d="M84.214,34.25,78.508,11.424a7.649,7.649,0,0,0-5.493-5.493L50.189.225a7.6,7.6,0,0,0-7.2,2L2.22,42.988a7.556,7.556,0,0,0,0,10.7L30.752,82.219a7.556,7.556,0,0,0,10.7,0L82.217,41.454A7.6,7.6,0,0,0,84.214,34.25Zm-28.5-5.528a7.566,7.566,0,1,1,10.7,0A7.556,7.556,0,0,1,55.718,28.722Z" transform="translate(0 1.642)" fill="#798402"/>
    <path id="Path_72" data-name="Path 72" d="M2.212,12.912a7.566,7.566,0,1,1,10.7,0A7.574,7.574,0,0,1,2.212,12.912ZM9.345,5.779a2.522,2.522,0,1,0,0,3.566A2.524,2.524,0,0,0,9.345,5.779Z" transform="translate(28.54 28.151)" fill="#fff"/>
    <path id="Path_73" data-name="Path 73" d="M2.212,12.912a7.566,7.566,0,1,1,10.7,0A7.574,7.574,0,0,1,2.212,12.912ZM9.345,5.779a2.522,2.522,0,1,0,0,3.566A2.524,2.524,0,0,0,9.345,5.779Z" transform="translate(32.106 53.116)" fill="#fff"/>
    <path id="Path_74" data-name="Path 74" d="M34.9,5.013,15.713,7.153,2.8,8.58A2.41,2.41,0,0,1,.733,7.866a2.575,2.575,0,0,1-.713-1.5A2.5,2.5,0,0,1,2.231,3.586l19.188-2.14L34.33.02a2.5,2.5,0,0,1,2.782,2.211A2.5,2.5,0,0,1,34.9,5.013Z" transform="translate(19.319 43.896)" fill="#fff"/>
    <path id="Path_76" data-name="Path 76" d="M23.23,4.315,4.315,23.23a2.5,2.5,0,0,1-3.566,0,2.5,2.5,0,0,1,0-3.566L19.664.749a2.5,2.5,0,0,1,3.566,0A2.5,2.5,0,0,1,23.23,4.315Z" transform="translate(62.102)" fill="#fff"/>
  </g>
</svg>
